{
  "accessors": [
    {
      "bufferView": 2,
      "componentType": 5126,
      "count": 978,
      "max": [
        1.0,
        1.0,
        1.0
      ],
      "min": [
        -1.0,
        -1.0,
        -1.0658221244812012
      ],
      "type": "VEC3"
    },
    {
      "bufferView": 2,
      "byteOffset": 11736,
      "componentType": 5126,
      "count": 978,
      "max": [
        1.0,
        1.0,
        1.0
      ],
      "min": [
        -1.0,
        -1.0,
        -1.0
      ],
      "type": "VEC3"
    },
    {
      "bufferView": 3,
      "componentType": 5126,
      "count": 978,
      "max": [
        1.0,
        1.0,
        1.0,
        1.0
      ],
      "min": [
        -1.0,
        -1.0,
        -1.0,
        -1.0
      ],
      "type": "VEC4"
    },
    {
      "bufferView": 1,
      "componentType": 5126,
      "count": 978,
      "max": [
        0.875,
        1.0
      ],
      "min": [
        0.40349432826042175,
        0.0
      ],
      "type": "VEC2"
    },
    {
      "bufferView": 0,
      "componentType": 5125,
      "count": 2508,
      "type": "SCALAR"
    },
    {
      "bufferView": 2,
      "byteOffset": 23472,
      "componentType": 5126,
      "count": 44,
      "max": [
        0.3999442160129547,
        0.39415106177330017,
        0.15018659830093384
      ],
      "min": [
        -0.3999442458152771,
        -0.39415106177330017,
        -0.1501866579055786
      ],
      "type": "VEC3"
    },
    {
      "bufferView": 2,
      "byteOffset": 24000,
      "componentType": 5126,
      "count": 44,
      "max": [
        0.9597221612930298,
        1.0,
        0.959722101688385
      ],
      "min": [
        -0.9597222805023193,
        -1.0,
        -0.959722101688385
      ],
      "type": "VEC3"
    },
    {
      "bufferView": 1,
      "byteOffset": 7824,
      "componentType": 5126,
      "count": 44,
      "max": [
        0.7821685671806335,
        0.6571685075759888
      ],
      "min": [
        0.5965055823326111,
        0.09283146262168884
      ],
      "type": "VEC2"
    },
    {
      "bufferView": 0,
      "byteOffset": 10032,
      "componentType": 5125,
      "count": 78,
      "type": "SCALAR"
    },
    {
      "bufferView": 2,
      "byteOffset": 24528,
      "componentType": 5126,
      "count": 56,
      "max": [
        0.3371434509754181,
        0.08270884305238724,
        0.02461685985326767
      ],
      "min": [
        -0.3371434509754181,
        -0.08270884305238724,
        -0.02461685985326767
      ],
      "type": "VEC3"
    },
    {
      "bufferView": 2,
      "byteOffset": 25200,
      "componentType": 5126,
      "count": 56,
      "max": [
        1.0,
        1.0,
        1.0
      ],
      "min": [
        -1.0,
        -1.0,
        -1.0
      ],
      "type": "VEC3"
    },
    {
      "bufferView": 1,
      "byteOffset": 8176,
      "componentType": 5126,
      "count": 56,
      "max": [
        0.875,
        1.0
      ],
      "min": [
        0.125,
        0.0
      ],
      "type": "VEC2"
    },
    {
      "bufferView": 0,
      "byteOffset": 10344,
      "componentType": 5125,
      "count": 84,
      "type": "SCALAR"
    },
    {
      "bufferView": 2,
      "byteOffset": 25872,
      "componentType": 5126,
      "count": 4,
      "max": [
        0.3244922161102295,
        0.33318015933036804,
        0.11849448084831238
      ],
      "min": [
        -0.3371661305427551,
        -0.33318015933036804,
        -0.07520091533660889
      ],
      "type": "VEC3"
    },
    {
      "bufferView": 2,
      "byteOffset": 25920,
      "componentType": 5126,
      "count": 4,
      "max": [
        -0.28095123171806335,
        0.0,
        0.9597220420837402
      ],
      "min": [
        -0.28095123171806335,
        0.0,
        0.9597220420837402
      ],
      "type": "VEC3"
    },
    {
      "bufferView": 1,
      "byteOffset": 8624,
      "componentType": 5126,
      "count": 4,
      "max": [
        1.0028631687164307,
        1.0125935077667236
      ],
      "min": [
        -0.011919427663087845,
        -0.024940133094787598
      ],
      "type": "VEC2"
    },
    {
      "bufferView": 0,
      "byteOffset": 10680,
      "componentType": 5125,
      "count": 6,
      "type": "SCALAR"
    }
  ],
  "asset": {
    "extras": {
      "author": "pryoxs (https://sketchfab.com/power142)",
      "license": "CC-BY-4.0 (http://creativecommons.org/licenses/by/4.0/)",
      "source": "https://sketchfab.com/3d-models/sci-fi-box-low-poly-24ef91937b174741bff015e2c5e02365",
      "title": "sci-fi box Low Poly"
    },
    "generator": "Sketchfab-16.15.0",
    "version": "2.0"
  },
  "bufferViews": [
    {
      "buffer": 0,
      "byteLength": 10704,
      "name": "floatBufferViews",
      "target": 34963
    },
    {
      "buffer": 0,
      "byteLength": 8656,
      "byteOffset": 10704,
      "byteStride": 8,
      "name": "floatBufferViews",
      "target": 34962
    },
    {
      "buffer": 0,
      "byteLength": 25968,
      "byteOffset": 19360,
      "byteStride": 12,
      "name": "floatBufferViews",
      "target": 34962
    },
    {
      "buffer": 0,
      "byteLength": 15648,
      "byteOffset": 45328,
      "byteStride": 16,
      "name": "floatBufferViews",
      "target": 34962
    }
  ],
  "buffers": [
    {
      "byteLength": 60976,
      "uri": "scene.bin"
    }
  ],
  "extensionsUsed": [
    "KHR_materials_emissive_strength",
    "KHR_materials_specular"
  ],
  "images": [
    {
      "uri": "textures/Material.005_baseColor.png"
    },
    {
      "uri": "textures/Material.005_normal.png"
    },
    {
      "uri": "textures/Material.007_metallicRoughness.png"
    }
  ],
  "materials": [
    {
      "doubleSided": true,
      "name": "Material.005",
      "normalTexture": {
        "index": 1
      },
      "pbrMetallicRoughness": {
        "baseColorTexture": {
          "index": 0
        },
        "metallicFactor": 0.0,
        "roughnessFactor": 0.23009877911855112
      }
    },
    {
      "doubleSided": true,
      "name": "Material.006",
      "pbrMetallicRoughness": {
        "baseColorFactor": [
          0.0277184,
          0.0277184,
          0.0277184,
          1.0
        ],
        "metallicFactor": 0.0,
        "roughnessFactor": 0.993801977337247
      }
    },
    {
      "doubleSided": true,
      "name": "Material.001",
      "pbrMetallicRoughness": {
        "baseColorFactor": [
          0.8,
          0.8,
          0.8,
          1.0
        ],
        "metallicFactor": 0.0,
        "roughnessFactor": 0.8211145618000169
      }
    },
    {
      "doubleSided": true,
      "emissiveFactor": [
        1.0,
        1.0,
        1.0
      ],
      "extensions": {
        "KHR_materials_emissive_strength": {
          "emissiveStrength": 10.0
        },
        "KHR_materials_specular": {
          "specularColorFactor": [
            1.0,
            1.0,
            1.0
          ],
          "specularFactor": 0.5280481768718059
        }
      },
      "name": "Material.007",
      "pbrMetallicRoughness": {
        "metallicRoughnessTexture": {
          "index": 2
        },
        "roughnessFactor": 0.4551720601971431
      }
    }
  ],
  "meshes": [
    {
      "name": "Cube.007_Material.005_0",
      "primitives": [
        {
          "attributes": {
            "NORMAL": 1,
            "POSITION": 0,
            "TANGENT": 2,
            "TEXCOORD_0": 3
          },
          "indices": 4,
          "material": 0,
          "mode": 4
        }
      ]
    },
    {
      "name": "Cube.009_Material.006_0",
      "primitives": [
        {
          "attributes": {
            "NORMAL": 6,
            "POSITION": 5,
            "TEXCOORD_0": 7
          },
          "indices": 8,
          "material": 1,
          "mode": 4
        }
      ]
    },
    {
      "name": "Cube.010_Material.001_0",
      "primitives": [
        {
          "attributes": {
            "NORMAL": 10,
            "POSITION": 9,
            "TEXCOORD_0": 11
          },
          "indices": 12,
          "material": 2,
          "mode": 4
        }
      ]
    },
    {
      "name": "Cube.011_Material.007_0",
      "primitives": [
        {
          "attributes": {
            "NORMAL": 14,
            "POSITION": 13,
            "TEXCOORD_0": 15
          },
          "indices": 16,
          "material": 3,
          "mode": 4
        }
      ]
    }
  ],
  "nodes": [
    {
      "children": [
        1
      ],
      "matrix": [
        1.0,
        0.0,
        0.0,
        0.0,
        0.0,
        2.220446049250313e-16,
        -1.0,
        0.0,
        0.0,
        1.0,
        2.220446049250313e-16,
        0.0,
        0.0,
        0.0,
        0.0,
        1.0
      ],
      "name": "Sketchfab_model"
    },
    {
      "children": [
        2
      ],
      "matrix": [
        0.009999999776482582,
        0.0,
        0.0,
        0.0,
        0.0,
        0.0,
        0.009999999776482582,
        0.0,
        0.0,
        -0.009999999776482582,
        0.0,
        0.0,
        0.0,
        0.0,
        0.0,
        1.0
      ],
      "name": "96301dfcfffb458ea0561dd25986dbf1.fbx"
    },
    {
      "children": [
        3,
        5,
        7,
        9
      ],
      "name": "RootNode"
    },
    {
      "children": [
        4
      ],
      "matrix": [
        100.0,
        0.0,
        0.0,
        0.0,
        0.0,
        -1.6981416865762387e-05,
        -104.23119354247909,
        0.0,
        0.0,
        99.99999999999868,
        -1.629206793918314e-05,
        0.0,
        0.0,
        0.0,
        1742.8228759765625,
        1.0
      ],
      "name": "Cube.007"
    },
    {
      "mesh": 0,
      "name": "Cube.007_Material.005_0"
    },
    {
      "children": [
        6
      ],
      "matrix": [
        100.0,
        0.0,
        0.0,
        0.0,
        -0.0,
        -1.6981416865762387e-05,
        -104.23119354247909,
        0.0,
        0.0,
        99.99999999999868,
        -1.629206793918314e-05,
        0.0,
        -61.27989196777344,
        89.13628387451172,
        1742.822998046875,
        1.0
      ],
      "name": "Cube.009"
    },
    {
      "mesh": 1,
      "name": "Cube.009_Material.006_0"
    },
    {
      "children": [
        8
      ],
      "matrix": [
        100.0,
        0.0,
        0.0,
        0.0,
        0.0,
        -1.629206793918314e-05,
        -99.99999999999868,
        0.0,
        0.0,
        99.99999999999868,
        -1.629206793918314e-05,
        0.0,
        21.84547233581543,
        101.11217498779297,
        1744.8829345703125,
        1.0
      ],
      "name": "Cube.010"
    },
    {
      "mesh": 2,
      "name": "Cube.010_Material.001_0"
    },
    {
      "children": [
        10
      ],
      "matrix": [
        100.0,
        0.0,
        0.0,
        0.0,
        -0.0,
        -1.6981416865762387e-05,
        -104.23119354247909,
        0.0,
        0.0,
        99.99999999999868,
        -1.629206793918314e-05,
        0.0,
        -61.27989196777344,
        89.13628387451172,
        1742.822998046875,
        1.0
      ],
      "name": "Cube.011"
    },
    {
      "mesh": 3,
      "name": "Cube.011_Material.007_0"
    }
  ],
  "samplers": [
    {
      "magFilter": 9729,
      "minFilter": 9987,
      "wrapS": 10497,
      "wrapT": 10497
    }
  ],
  "scene": 0,
  "scenes": [
    {
      "name": "Sketchfab_Scene",
      "nodes": [
        0
      ]
    }
  ],
  "textures": [
    {
      "sampler": 0,
      "source": 0
    },
    {
      "sampler": 0,
      "source": 1
    },
    {
      "sampler": 0,
      "source": 2
    }
  ]
}
