{
  "accessors": [
    {
      "bufferView": 2,
      "componentType": 5126,
      "count": 49,
      "max": [
        14.925100326538086,
        12.285900115966797,
        -19.992300033569336
      ],
      "min": [
        -14.612099647521973,
        -10.887399673461914,
        -23.446500778198242
      ],
      "type": "VEC3"
    },
    {
      "bufferView": 2,
      "byteOffset": 588,
      "componentType": 5126,
      "count": 49,
      "max": [
        1.0,
        1.0,
        0.0
      ],
      "min": [
        -1.0,
        -1.0,
        -1.0
      ],
      "type": "VEC3"
    },
    {
      "bufferView": 3,
      "componentType": 5126,
      "count": 49,
      "max": [
        1.0,
        1.0,
        0.0008079201797954738,
        1.0
      ],
      "min": [
        -1.0,
        -2.752604086708743e-05,
        -0.0009509060764685273,
        1.0
      ],
      "type": "VEC4"
    },
    {
      "bufferView": 1,
      "componentType": 5126,
      "count": 49,
      "max": [
        0.6769999861717224,
        0.8172000050544739
      ],
      "min": [
        0.14069999754428864,
        0.08940000087022781
      ],
      "type": "VEC2"
    },
    {
      "bufferView": 0,
      "componentType": 5125,
      "count": 105,
      "type": "SCALAR"
    },
    {
      "bufferView": 2,
      "byteOffset": 1176,
      "componentType": 5126,
      "count": 2882,
      "max": [
        15.335000038146973,
        12.285900115966797,
        28.16790008544922
      ],
      "min": [
        -15.335000038146973,
        -12.285900115966797,
        -26.836299896240234
      ],
      "type": "VEC3"
    },
    {
      "bufferView": 2,
      "byteOffset": 35760,
      "componentType": 5126,
      "count": 2882,
      "max": [
        1.0,
        1.0,
        1.0
      ],
      "min": [
        -1.0,
        -1.0,
        -1.0
      ],
      "type": "VEC3"
    },
    {
      "bufferView": 3,
      "byteOffset": 784,
      "componentType": 5126,
      "count": 2882,
      "max": [
        1.0,
        1.0,
        1.0,
        1.0
      ],
      "min": [
        -1.0,
        -1.0,
        -1.0,
        -1.0
      ],
      "type": "VEC4"
    },
    {
      "bufferView": 1,
      "byteOffset": 392,
      "componentType": 5126,
      "count": 2882,
      "max": [
        0.9900000095367432,
        0.9803000092506409
      ],
      "min": [
        0.009999999776482582,
        0.009999999776482582
      ],
      "type": "VEC2"
    },
    {
      "bufferView": 0,
      "byteOffset": 420,
      "componentType": 5125,
      "count": 8211,
      "type": "SCALAR"
    },
    {
      "bufferView": 2,
      "byteOffset": 70344,
      "componentType": 5126,
      "count": 1014,
      "max": [
        15.28320026397705,
        12.285900115966797,
        28.16790008544922
      ],
      "min": [
        -14.612099647521973,
        -10.887399673461914,
        -28.16790008544922
      ],
      "type": "VEC3"
    },
    {
      "bufferView": 2,
      "byteOffset": 82512,
      "componentType": 5126,
      "count": 1014,
      "max": [
        1.0,
        1.0,
        1.0
      ],
      "min": [
        -1.0,
        -1.0,
        -1.0
      ],
      "type": "VEC3"
    },
    {
      "bufferView": 3,
      "byteOffset": 46896,
      "componentType": 5126,
      "count": 1014,
      "max": [
        1.0,
        1.0,
        1.0,
        1.0
      ],
      "min": [
        -1.0,
        -1.0,
        -1.0,
        -1.0
      ],
      "type": "VEC4"
    },
    {
      "bufferView": 1,
      "byteOffset": 23448,
      "componentType": 5126,
      "count": 1014,
      "max": [
        0.9804999828338623,
        0.9771999716758728
      ],
      "min": [
        0.009999999776482582,
        0.019300000742077827
      ],
      "type": "VEC2"
    },
    {
      "bufferView": 0,
      "byteOffset": 33264,
      "componentType": 5125,
      "count": 2835,
      "type": "SCALAR"
    }
  ],
  "asset": {
    "extras": {
      "author": "Evgenii Sobolev (https://sketchfab.com/ESobolev)",
      "license": "CC-BY-4.0 (http://creativecommons.org/licenses/by/4.0/)",
      "source": "https://sketchfab.com/3d-models/microscope-d3bdf848c10e477ea96f332ebb10d297",
      "title": "Microscope"
    },
    "generator": "Sketchfab-16.8.0",
    "version": "2.0"
  },
  "bufferViews": [
    {
      "buffer": 0,
      "byteLength": 44604,
      "name": "floatBufferViews",
      "target": 34963
    },
    {
      "buffer": 0,
      "byteLength": 31560,
      "byteOffset": 44604,
      "byteStride": 8,
      "name": "floatBufferViews",
      "target": 34962
    },
    {
      "buffer": 0,
      "byteLength": 94680,
      "byteOffset": 76164,
      "byteStride": 12,
      "name": "floatBufferViews",
      "target": 34962
    },
    {
      "buffer": 0,
      "byteLength": 63120,
      "byteOffset": 170844,
      "byteStride": 16,
      "name": "floatBufferViews",
      "target": 34962
    }
  ],
  "buffers": [
    {
      "byteLength": 233964,
      "uri": "scene.bin"
    }
  ],
  "images": [
    {
      "uri": "textures/M_MicroSCP_baseColor.png"
    },
    {
      "uri": "textures/M_MicroSCP_metallicRoughness.png"
    },
    {
      "uri": "textures/M_MicroSCP_normal.png"
    }
  ],
  "materials": [
    {
      "doubleSided": true,
      "name": "M_MicroSCP",
      "normalTexture": {
        "index": 2
      },
      "pbrMetallicRoughness": {
        "baseColorTexture": {
          "index": 0
        },
        "metallicRoughnessTexture": {
          "index": 1
        }
      }
    }
  ],
  "meshes": [
    {
      "name": "Object_0",
      "primitives": [
        {
          "attributes": {
            "NORMAL": 1,
            "POSITION": 0,
            "TANGENT": 2,
            "TEXCOORD_0": 3
          },
          "indices": 4,
          "material": 0,
          "mode": 4
        }
      ]
    },
    {
      "name": "Object_1",
      "primitives": [
        {
          "attributes": {
            "NORMAL": 6,
            "POSITION": 5,
            "TANGENT": 7,
            "TEXCOORD_0": 8
          },
          "indices": 9,
          "material": 0,
          "mode": 4
        }
      ]
    },
    {
      "name": "Object_2",
      "primitives": [
        {
          "attributes": {
            "NORMAL": 11,
            "POSITION": 10,
            "TANGENT": 12,
            "TEXCOORD_0": 13
          },
          "indices": 14,
          "material": 0,
          "mode": 4
        }
      ]
    }
  ],
  "nodes": [
    {
      "children": [
        1
      ],
      "matrix": [
        1.0,
        0.0,
        0.0,
        0.0,
        0.0,
        2.220446049250313e-16,
        -1.0,
        0.0,
        0.0,
        1.0,
        2.220446049250313e-16,
        0.0,
        0.0,
        0.0,
        0.0,
        1.0
      ],
      "name": "Sketchfab_model"
    },
    {
      "children": [
        2,
        3,
        4
      ],
      "name": "SM_Microscope_Full.obj.cleaner.materialmerger.gles"
    },
    {
      "mesh": 0,
      "name": "Object_2"
    },
    {
      "mesh": 1,
      "name": "Object_3"
    },
    {
      "mesh": 2,
      "name": "Object_4"
    }
  ],
  "samplers": [
    {
      "magFilter": 9729,
      "minFilter": 9987,
      "wrapS": 10497,
      "wrapT": 10497
    }
  ],
  "scene": 0,
  "scenes": [
    {
      "name": "Sketchfab_Scene",
      "nodes": [
        0
      ]
    }
  ],
  "textures": [
    {
      "sampler": 0,
      "source": 0
    },
    {
      "sampler": 0,
      "source": 1
    },
    {
      "sampler": 0,
      "source": 2
    }
  ]
}
